<svg width="40" height="40" viewBox="0 0 40 40" fill="none" xmlns="http://www.w3.org/2000/svg">
<path d="M19.9943 2.08325C21.7433 2.08325 23.122 3.4044 24.0014 5.18709H23.9998L26.9327 11.1002L26.9376 11.1083C27.0266 11.2915 27.2375 11.5494 27.5545 11.7854C27.8712 12.021 28.1819 12.1513 28.3862 12.1858L33.7019 13.0761H33.7036C35.6235 13.3989 37.2322 14.341 37.7547 15.9797C38.2765 17.6167 37.5117 19.3167 36.132 20.6998L31.9995 24.8681C31.8359 25.0331 31.6538 25.3441 31.5389 25.7486C31.4254 26.1481 31.4134 26.5127 31.464 26.7496L32.6473 31.9075V31.9091C33.1372 34.0528 32.9756 36.1784 31.464 37.29C29.9468 38.4051 27.8739 37.912 25.9904 36.7903L25.9887 36.7887L21.0066 33.815C20.7975 33.69 20.4375 33.5889 20.004 33.5888C19.5716 33.5888 19.2029 33.6895 18.9803 33.8199L14.0047 36.787L14.0063 36.7887C12.1251 37.9143 10.0549 38.3993 8.53755 37.2834C7.02649 36.1718 6.85449 34.0497 7.34615 31.9075L8.52941 26.7496C8.58003 26.5127 8.56962 26.1482 8.45617 25.7486C8.34117 25.3438 8.15757 25.0331 7.99393 24.8681L3.86145 20.7014C2.48944 19.3181 1.72733 17.6166 2.24523 15.9814C2.76488 14.3418 4.37023 13.3989 6.29146 13.0761L11.6088 12.1858C11.8037 12.1511 12.1082 12.0221 12.4226 11.787C12.7392 11.5503 12.9503 11.2919 13.0395 11.1083L13.0444 11.0986L15.9773 5.18547L15.979 5.18221C16.8666 3.40183 18.248 2.08366 19.9943 2.08325ZM19.9943 4.58325C19.6452 4.58369 18.9283 4.87056 18.2169 6.29712L15.2872 12.1988L15.2889 12.2004C14.9782 12.84 14.4571 13.389 13.92 13.7906C13.3832 14.192 12.7141 14.5337 12.0255 14.6516H12.0206L6.7065 15.5419C5.22867 15.7903 4.74202 16.3771 4.62805 16.7366C4.5127 17.1008 4.57494 17.8708 5.63553 18.9403L9.76965 23.107C10.3059 23.6477 10.6643 24.3711 10.8618 25.0667C11.0593 25.7627 11.133 26.5622 10.9692 27.2997L10.9659 27.3079L9.78267 32.4674C9.34128 34.391 9.78828 35.1006 10.0187 35.2701C10.2433 35.4349 11.0386 35.6507 12.7221 34.6435L12.7238 34.6418L17.7075 31.6682L17.7156 31.6633C18.4095 31.2565 19.2412 31.0888 20.004 31.0888C20.7655 31.0889 21.5972 31.256 22.2876 31.6682L27.2697 34.6418L27.5773 34.8176C29.065 35.6269 29.7762 35.4282 29.9829 35.2766C30.208 35.1111 30.6534 34.4054 30.2107 32.4674L29.0275 27.3079L29.0258 27.2997C28.862 26.5621 28.9357 25.7628 29.1333 25.0667C29.3307 24.3711 29.6891 23.6477 30.2254 23.107L34.3579 18.9403L34.3611 18.9371C35.4281 17.8685 35.4883 17.1014 35.3735 16.7398C35.2729 16.4244 34.8844 15.9349 33.798 15.651L33.2885 15.5419L27.9728 14.6516C27.2771 14.5347 26.6032 14.1949 26.062 13.7922C25.5212 13.3899 24.9991 12.8404 24.6883 12.2004V12.1988L21.7602 6.29549L21.7586 6.29386C21.0548 4.86727 20.3408 4.58325 19.9943 4.58325Z" fill="#3C3C49"/>
</svg>
