<svg width="24" height="24" viewBox="0 0 24 24" fill="none" xmlns="http://www.w3.org/2000/svg">
<path d="M18.8598 12.0078C18.8598 11.3705 19.0782 10.642 19.4526 10.168L19.4819 10.1328L20.5131 8.98048L20.5141 8.97852C20.7599 8.70514 20.9019 8.54647 20.9926 8.41895C21.0332 8.36183 21.0507 8.32842 21.0581 8.31153C21.0613 8.30419 21.0626 8.3 21.063 8.29884V8.29591C21.0629 8.29498 21.0627 8.29059 21.061 8.28223C21.0573 8.26418 21.047 8.22786 21.019 8.16309C20.9568 8.01939 20.852 7.83429 20.6684 7.51563L20.1743 6.65919C19.9786 6.31958 19.8642 6.12226 19.7641 5.98829C19.7189 5.9277 19.6898 5.89927 19.6753 5.88673L19.6645 5.87891C19.6639 5.87877 19.6592 5.87748 19.6508 5.87696C19.6319 5.87581 19.5916 5.87587 19.5171 5.8877C19.3523 5.91387 19.133 5.97515 18.7563 6.08204L17.5346 6.42579L17.518 6.43067L17.5005 6.43458C16.8692 6.58014 16.2065 6.49816 15.6303 6.20216L15.6137 6.19337L15.5981 6.18458L15.2612 5.99024L15.2465 5.98145L15.2319 5.97169C14.7379 5.65532 14.3581 5.18934 14.1479 4.64161L14.1421 4.62598L14.1372 4.61134L13.8032 3.61329L13.8022 3.61231C13.687 3.26593 13.6196 3.06571 13.5542 2.92481C13.5247 2.86145 13.5045 2.83003 13.4936 2.81544C13.4888 2.809 13.4856 2.80643 13.4848 2.80567L13.4829 2.80372C13.4815 2.80308 13.4778 2.80201 13.4712 2.79981C13.4541 2.79418 13.4184 2.7843 13.3491 2.77637C13.1953 2.75878 12.9849 2.75782 12.6206 2.75782H11.5053C11.141 2.75782 10.9306 2.75878 10.7768 2.77637C10.7076 2.7843 10.6718 2.79418 10.6547 2.79981C10.6481 2.80203 10.6443 2.80309 10.643 2.80372L10.6411 2.80567C10.6403 2.80646 10.637 2.80907 10.6323 2.81544C10.6214 2.83004 10.6012 2.86147 10.5717 2.92481C10.5063 3.06571 10.4389 3.26593 10.3237 3.61231L10.3227 3.61329L9.98873 4.61134L9.98385 4.62598L9.97799 4.64161C9.76783 5.18933 9.38795 5.65533 8.894 5.97169L8.87936 5.98145L8.86471 5.99024L8.52779 6.18458L8.51217 6.19337L8.49557 6.20216C7.91936 6.49815 7.25665 6.58014 6.62545 6.43458L6.60885 6.43067L6.59127 6.42579L5.37057 6.08204C4.99385 5.97514 4.77361 5.91386 4.60885 5.8877C4.53433 5.87587 4.49403 5.87581 4.47506 5.87696C4.46658 5.87749 4.46289 5.8788 4.46236 5.87891C4.46186 5.87923 4.4571 5.88118 4.45065 5.88673C4.4361 5.89927 4.40705 5.92768 4.36178 5.98829C4.26172 6.12226 4.14732 6.31956 3.95162 6.65919L3.45748 7.51563C3.27386 7.83429 3.16912 8.01939 3.1069 8.16309C3.07885 8.22786 3.0686 8.26419 3.0649 8.28223C3.06319 8.29059 3.063 8.29498 3.06295 8.29591V8.29884C3.06327 8.29998 3.06462 8.30417 3.06783 8.31153C3.07523 8.32841 3.09265 8.36182 3.13326 8.41895C3.17861 8.48272 3.23655 8.55473 3.31393 8.64454L3.61178 8.97852L3.61275 8.98048L4.644 10.1328L4.6733 10.168C5.04771 10.642 5.26607 11.3705 5.26607 12.0078C5.26604 12.6454 5.04774 13.3736 4.6733 13.8477L4.644 13.8828L3.61275 15.0352L3.61178 15.0371C3.36595 15.3105 3.22395 15.4692 3.13326 15.5967C3.09262 15.6539 3.07521 15.6873 3.06783 15.7041C3.06454 15.7116 3.06324 15.7158 3.06295 15.7168V15.7197C3.063 15.7207 3.06319 15.7251 3.0649 15.7334C3.06862 15.7515 3.07887 15.7878 3.1069 15.8525C3.16912 15.9962 3.27387 16.1814 3.45748 16.5L3.95162 17.3565C4.14729 17.696 4.26172 17.8934 4.36178 18.0274C4.40693 18.0878 4.43608 18.1154 4.45065 18.1279L4.46139 18.1367C4.46196 18.1369 4.46663 18.1382 4.47506 18.1387C4.49403 18.1398 4.53433 18.1398 4.60885 18.1279C4.77361 18.1018 4.99286 18.0405 5.36959 17.9336L6.59127 17.5899L6.60787 17.585L6.62545 17.5801C7.25669 17.4345 7.91934 17.5175 8.49557 17.8135L8.51217 17.8223L8.52779 17.8311L8.86471 18.0254L8.88033 18.0342L8.89498 18.044C9.38863 18.3603 9.76793 18.8265 9.97799 19.374L9.98385 19.3897L9.98873 19.4043L10.3227 20.4024L10.3237 20.4033C10.4389 20.7497 10.5063 20.9499 10.5717 21.0908C10.6012 21.1542 10.6214 21.1856 10.6323 21.2002C10.637 21.2066 10.6403 21.2092 10.6411 21.21L10.643 21.2119C10.6443 21.2125 10.6481 21.2136 10.6547 21.2158C10.6718 21.2215 10.7076 21.2313 10.7768 21.2393C10.9306 21.2569 11.141 21.2578 11.5053 21.2578H12.6206C12.9849 21.2578 13.1953 21.2569 13.3491 21.2393C13.4184 21.2313 13.4541 21.2215 13.4712 21.2158C13.4778 21.2136 13.4815 21.2126 13.4829 21.2119L13.4848 21.21C13.4856 21.2092 13.4888 21.2066 13.4936 21.2002C13.5045 21.1856 13.5247 21.1542 13.5542 21.0908C13.6196 20.9499 13.687 20.7497 13.8022 20.4033L13.8032 20.4024L14.1372 19.4043L14.1421 19.3897L14.1479 19.374C14.358 18.8263 14.738 18.3603 15.2319 18.044L15.2465 18.0342L15.2612 18.0254L15.5981 17.8311L15.6137 17.8223L15.6303 17.8135C16.1345 17.5545 16.7047 17.4585 17.2622 17.5361L17.5005 17.5801L17.518 17.585L17.5346 17.5899L18.7553 17.9336C19.132 18.0405 19.3523 18.1018 19.5171 18.1279C19.5916 18.1398 19.6319 18.1398 19.6508 18.1387C19.6591 18.1382 19.6628 18.1369 19.6635 18.1367L19.6753 18.1279C19.6898 18.1154 19.7189 18.0878 19.7641 18.0274C19.8642 17.8934 19.9786 17.696 20.1743 17.3565L20.6684 16.5C20.852 16.1814 20.9568 15.9962 21.019 15.8525C21.047 15.7878 21.0573 15.7515 21.061 15.7334C21.0627 15.7251 21.0629 15.7207 21.063 15.7197V15.7168C21.0627 15.7157 21.0613 15.7116 21.0581 15.7041C21.0507 15.6872 21.0333 15.6539 20.9926 15.5967C20.9019 15.4692 20.7599 15.3105 20.5141 15.0371L20.5131 15.0352L19.4819 13.8828L19.4526 13.8477C19.0782 13.3736 18.8599 12.6454 18.8598 12.0078ZM20.3598 12.0078C20.3599 12.3629 20.4943 12.7377 20.6215 12.9072L21.6303 14.0342L21.9487 14.3936C22.048 14.5092 22.1383 14.6207 22.2143 14.7275C22.3775 14.9571 22.5198 15.225 22.5551 15.5615C22.5905 15.8979 22.5078 16.1899 22.396 16.4482C22.2917 16.689 22.1345 16.9604 21.9682 17.249L21.4741 18.1055C21.2966 18.4135 21.1312 18.7027 20.9653 18.9248C20.7874 19.163 20.561 19.3913 20.229 19.5264C19.8968 19.6614 19.5754 19.656 19.2817 19.6094C19.008 19.5659 18.6886 19.4739 18.3471 19.377L17.1538 19.04C16.8764 18.9783 16.5862 19.0133 16.3315 19.1397L16.0268 19.3154C15.8114 19.4574 15.6444 19.663 15.5503 19.9043L15.2251 20.876L15.226 20.877C15.1217 21.1906 15.0242 21.4864 14.9145 21.7227C14.7968 21.9761 14.635 22.23 14.3628 22.4268C14.09 22.6237 13.7969 22.6977 13.519 22.7295C13.2605 22.759 12.9502 22.7578 12.6206 22.7578H11.5053C11.1757 22.7578 10.8654 22.759 10.6069 22.7295C10.329 22.6977 10.0359 22.6237 9.76315 22.4268C9.49093 22.23 9.3291 21.9761 9.21139 21.7227C9.10167 21.4864 9.0042 21.1906 8.89986 20.877L8.57467 19.9043C8.48039 19.6629 8.31377 19.4574 8.09811 19.3154L7.79342 19.1397C7.53864 19.0135 7.24855 18.9781 6.97115 19.04L5.77779 19.376L5.77877 19.377C5.43733 19.4739 5.11789 19.5659 4.8442 19.6094C4.55053 19.656 4.22914 19.6614 3.89693 19.5264C3.56489 19.3913 3.33853 19.163 3.16061 18.9248C2.99468 18.7027 2.82931 18.4135 2.65182 18.1055L2.15865 17.249C1.99236 16.9604 1.83418 16.689 1.72994 16.4482C1.61811 16.1899 1.53542 15.8979 1.57076 15.5615C1.60614 15.225 1.74836 14.9571 1.91158 14.7275C2.06352 14.5139 2.27308 14.2816 2.49557 14.0342L3.50338 12.9072C3.6307 12.738 3.76603 12.3633 3.76607 12.0078C3.76607 11.6523 3.63083 11.2764 3.50338 11.1074L2.49459 9.98048C2.27261 9.73362 2.06321 9.50131 1.91158 9.28809C1.74836 9.05857 1.60616 8.79061 1.57076 8.45411C1.53543 8.11777 1.61812 7.82576 1.72994 7.56739C1.83418 7.32666 1.99236 7.0552 2.15865 6.76661L2.65182 5.91016C2.82933 5.6021 2.99467 5.313 3.16061 5.09083C3.33855 4.85264 3.56487 4.62432 3.89693 4.48926C4.22914 4.35423 4.55053 4.35963 4.8442 4.40626C5.1179 4.44973 5.43733 4.54179 5.77877 4.63868L6.97115 4.97462C7.24873 5.03669 7.53851 5.00129 7.79342 4.87501L8.09811 4.69923C8.31381 4.55714 8.48049 4.35192 8.57467 4.11036L8.89986 3.13868L9.05416 2.68653C9.10511 2.54417 9.1566 2.41098 9.21139 2.29298C9.3291 2.03952 9.49093 1.78561 9.76315 1.58887C10.0359 1.39192 10.329 1.31793 10.6069 1.28614C10.8654 1.2566 11.1757 1.25782 11.5053 1.25782H12.6206C12.9502 1.25782 13.2605 1.2566 13.519 1.28614C13.7969 1.31793 14.09 1.39192 14.3628 1.58887C14.635 1.7856 14.7968 2.03952 14.9145 2.29298C15.0242 2.52928 15.1217 2.82504 15.226 3.13868L15.5503 4.11036C15.6443 4.3518 15.8114 4.55709 16.0268 4.69923L16.3315 4.87501C16.5863 5.00147 16.8762 5.03645 17.1538 4.97462L18.3471 4.63868L18.8403 4.50294C18.9969 4.46245 19.145 4.42798 19.2817 4.40626C19.5754 4.35963 19.8968 4.35425 20.229 4.48926C20.561 4.62432 20.7874 4.85264 20.9653 5.09083C21.1312 5.313 21.2966 5.6021 21.4741 5.91016L21.9682 6.76661C22.1345 7.0552 22.2917 7.32666 22.396 7.56739C22.5078 7.82577 22.5905 8.11776 22.5551 8.45411C22.5197 8.79062 22.3775 9.05857 22.2143 9.28809C22.0626 9.50145 21.8525 9.73246 21.6303 9.9795L20.6215 11.1074C20.4942 11.2767 20.3598 11.6527 20.3598 12.0078Z" fill="black"/>
<path d="M10.0005 8.25001C10.5831 8.25001 11.1048 8.5994 11.3296 9.12891L11.3696 9.23731L13.2124 14.7627C13.3433 15.1557 13.1307 15.5809 12.7378 15.7119C12.3448 15.8429 11.9195 15.6303 11.7885 15.2373L11.2924 13.75H8.70846L8.21236 15.2373C8.08138 15.6303 7.6561 15.8429 7.26315 15.7119C6.87019 15.5809 6.65755 15.1557 6.78854 14.7627L8.63131 9.23731L8.67135 9.12891C8.89613 8.5994 9.41782 8.25001 10.0005 8.25001ZM9.20846 12.25H10.7924L10.0005 9.87305L9.20846 12.25Z" fill="black"/>
<path d="M14.7505 15V9.00001C14.7505 8.58579 15.0862 8.25001 15.5005 8.25001C15.9147 8.25001 16.2505 8.58579 16.2505 9.00001V15C16.2505 15.4142 15.9147 15.75 15.5005 15.75C15.0862 15.75 14.7505 15.4142 14.7505 15Z" fill="black"/>
</svg>
