<svg width="24" height="24" viewBox="0 0 24 24" fill="none" xmlns="http://www.w3.org/2000/svg">
<path d="M11.25 21V14.5381C11.2481 14.5404 11.2461 14.5426 11.2441 14.5449C11.0171 14.8129 10.7945 15.0976 10.5889 15.3594C10.3968 15.6039 10.1951 15.8609 10.0381 16.0225C9.74947 16.3194 9.27458 16.3265 8.97754 16.0381C8.68061 15.7495 8.67349 15.2746 8.96191 14.9775C9.05062 14.8863 9.19696 14.704 9.41016 14.4326C9.60993 14.1783 9.85073 13.8689 10.0996 13.5752C10.3456 13.2849 10.6212 12.9835 10.8965 12.749C11.0344 12.6316 11.1902 12.5153 11.3574 12.4258C11.5189 12.3394 11.7417 12.25 12 12.25C12.2583 12.25 12.4811 12.3394 12.6426 12.4258C12.8098 12.5153 12.9656 12.6316 13.1035 12.749C13.3788 12.9835 13.6544 13.2849 13.9004 13.5752C14.1493 13.8689 14.3901 14.1783 14.5898 14.4326C14.803 14.704 14.9494 14.8863 15.0381 14.9775C15.3265 15.2746 15.3194 15.7495 15.0225 16.0381C14.7254 16.3265 14.2505 16.3194 13.9619 16.0225C13.8049 15.8609 13.6032 15.6039 13.4111 15.3594C13.2055 15.0976 12.9829 14.8129 12.7559 14.5449C12.7539 14.5426 12.7519 14.5404 12.75 14.5381V21C12.75 21.4142 12.4142 21.75 12 21.75C11.5858 21.75 11.25 21.4142 11.25 21ZM1.25 13.0186C1.25 10.2322 3.22554 7.90707 5.85254 7.37402C6.38623 4.45963 8.93441 2.25 12 2.25C15.3873 2.25 18.1414 4.94834 18.2451 8.31348C20.7927 8.67592 22.75 10.8699 22.75 13.5195C22.7499 16.2252 20.7095 18.454 18.083 18.7451C17.6715 18.7907 17.3007 18.4945 17.2549 18.083C17.2093 17.6715 17.5055 17.3007 17.917 17.2549C19.7901 17.0474 21.2499 15.4545 21.25 13.5195C21.25 11.6525 19.8922 10.1052 18.1143 9.81152C17.9022 10.8155 17.4499 11.7305 16.8213 12.4932C16.5579 12.8127 16.0852 12.859 15.7656 12.5957C15.446 12.3322 15.4006 11.8587 15.6641 11.5391C16.2567 10.8201 16.6421 9.92536 16.7305 8.94434C16.7433 8.80164 16.75 8.65617 16.75 8.50977C16.7498 5.87969 14.622 3.75 12 3.75C9.80421 3.75 7.9551 5.24415 7.41211 7.27441C8.54756 7.35509 9.59292 7.76613 10.4512 8.41211C10.7821 8.6612 10.8487 9.13097 10.5996 9.46191C10.3506 9.79276 9.88073 9.8592 9.5498 9.61035C8.83949 9.0757 7.95746 8.75879 7 8.75879C6.86211 8.75879 6.72594 8.76554 6.5918 8.77832C4.43768 8.98368 2.75 10.8033 2.75 13.0186C2.7501 15.0792 4.21071 16.7981 6.14941 17.1924C6.55532 17.2749 6.8179 17.6712 6.73535 18.0771C6.65268 18.4829 6.25639 18.7446 5.85059 18.6621C3.22497 18.1282 1.2501 15.8045 1.25 13.0186Z" fill="black"/>
</svg>
